<svg width="432" height="39" viewBox="0 0 432 39" fill="none" xmlns="http://www.w3.org/2000/svg">
<path d="M25.7699 10.7244H20.4574C20.3059 9.85322 20.0265 9.08144 19.6193 8.40909C19.2121 7.72727 18.7055 7.14962 18.0994 6.67614C17.4934 6.20265 16.8021 5.84754 16.0256 5.6108C15.2585 5.36458 14.4299 5.24148 13.5398 5.24148C11.9583 5.24148 10.5568 5.6392 9.33523 6.43466C8.11364 7.22064 7.1572 8.37595 6.46591 9.90057C5.77462 11.4157 5.42898 13.267 5.42898 15.4545C5.42898 17.6799 5.77462 19.5549 6.46591 21.0795C7.16667 22.5947 8.12311 23.7405 9.33523 24.517C10.5568 25.2841 11.9536 25.6676 13.5256 25.6676C14.3968 25.6676 15.2112 25.554 15.9688 25.3267C16.7358 25.09 17.4223 24.7443 18.0284 24.2898C18.6439 23.8352 19.16 23.2765 19.5767 22.6136C20.0028 21.9508 20.2964 21.1932 20.4574 20.3409L25.7699 20.3693C25.571 21.7519 25.1402 23.0492 24.4773 24.2614C23.8239 25.4735 22.9669 26.5436 21.9062 27.4716C20.8456 28.3902 19.6051 29.1098 18.1847 29.6307C16.7642 30.142 15.1875 30.3977 13.4545 30.3977C10.8977 30.3977 8.61553 29.8059 6.60795 28.6222C4.60038 27.4384 3.01894 25.7292 1.86364 23.4943C0.708333 21.2595 0.130682 18.5795 0.130682 15.4545C0.130682 12.3201 0.713068 9.64015 1.87784 7.41477C3.04261 5.17992 4.62879 3.47064 6.63636 2.28693C8.64394 1.10322 10.9167 0.511363 13.4545 0.511363C15.0739 0.511363 16.5795 0.738635 17.9716 1.19318C19.3636 1.64773 20.6042 2.31534 21.6932 3.19602C22.7822 4.06723 23.6771 5.13731 24.3778 6.40625C25.0881 7.66572 25.5521 9.10511 25.7699 10.7244ZM35.5107 17.2159V30H30.3686V0.90909H35.397V11.8892H35.6527C36.1641 10.6581 36.9548 9.6875 38.0249 8.97727C39.1044 8.25758 40.4775 7.89773 42.1442 7.89773C43.6593 7.89773 44.9804 8.21496 46.1072 8.84943C47.2341 9.4839 48.1054 10.4119 48.7209 11.6335C49.3459 12.8551 49.6584 14.3466 49.6584 16.108V30H44.5163V16.9034C44.5163 15.4356 44.1375 14.2945 43.38 13.4801C42.6319 12.6562 41.5807 12.2443 40.2266 12.2443C39.3175 12.2443 38.5031 12.4432 37.7834 12.8409C37.0732 13.2292 36.5144 13.7926 36.1072 14.5312C35.7095 15.2699 35.5107 16.1648 35.5107 17.2159ZM61.1783 30.4403C59.7957 30.4403 58.5504 30.1941 57.4425 29.7017C56.344 29.1998 55.4728 28.4612 54.8288 27.4858C54.1944 26.5104 53.8771 25.3078 53.8771 23.8778C53.8771 22.6468 54.1044 21.6288 54.5589 20.8239C55.0135 20.0189 55.6338 19.375 56.4197 18.892C57.2057 18.4091 58.0911 18.0445 59.076 17.7983C60.0703 17.5426 61.0978 17.358 62.1584 17.2443C63.4368 17.1117 64.4737 16.9934 65.2692 16.8892C66.0646 16.7756 66.6423 16.6051 67.0021 16.3778C67.3714 16.1411 67.5561 15.7765 67.5561 15.2841V15.1989C67.5561 14.1288 67.2389 13.3002 66.6044 12.7131C65.9699 12.1259 65.0561 11.8324 63.8629 11.8324C62.6035 11.8324 61.6044 12.107 60.8658 12.6562C60.1366 13.2055 59.6442 13.8542 59.3885 14.6023L54.5874 13.9205C54.9661 12.5947 55.5911 11.4867 56.4624 10.5966C57.3336 9.69697 58.3989 9.02462 59.6584 8.57955C60.9179 8.125 62.3099 7.89773 63.8345 7.89773C64.8857 7.89773 65.9321 8.02083 66.9737 8.26705C68.0154 8.51326 68.9671 8.92045 69.8288 9.48864C70.6906 10.0473 71.3819 10.8097 71.9027 11.7756C72.433 12.7415 72.6982 13.9489 72.6982 15.3977V30H67.755V27.0028H67.5845C67.272 27.6089 66.8317 28.1771 66.2635 28.7074C65.7048 29.2282 64.9993 29.6496 64.147 29.9716C63.3042 30.2841 62.3146 30.4403 61.1783 30.4403ZM62.5135 26.6619C63.5457 26.6619 64.4406 26.4583 65.1982 26.0511C65.9557 25.6345 66.5381 25.0852 66.9453 24.4034C67.362 23.7216 67.5703 22.9782 67.5703 22.1733V19.6023C67.4093 19.7348 67.1347 19.858 66.7464 19.9716C66.3677 20.0852 65.9415 20.1847 65.468 20.2699C64.9946 20.3551 64.5258 20.4309 64.0618 20.4972C63.5978 20.5634 63.1953 20.6203 62.8544 20.6676C62.0874 20.7718 61.4008 20.9422 60.7947 21.179C60.1887 21.4157 59.7105 21.7472 59.3601 22.1733C59.0097 22.59 58.8345 23.1297 58.8345 23.7926C58.8345 24.7396 59.1802 25.4545 59.8714 25.9375C60.5627 26.4205 61.4434 26.6619 62.5135 26.6619ZM83.0107 0.90909V30H77.8686V0.90909H83.0107ZM93.4403 0.90909V30H88.2983V0.90909H93.4403ZM108.387 30.4261C106.2 30.4261 104.31 29.9716 102.719 29.0625C101.138 28.1439 99.9212 26.8466 99.0689 25.1705C98.2166 23.4848 97.7905 21.5009 97.7905 19.2188C97.7905 16.9744 98.2166 15.0047 99.0689 13.3097C99.9306 11.6051 101.133 10.2794 102.677 9.33239C104.22 8.37595 106.034 7.89773 108.117 7.89773C109.462 7.89773 110.731 8.11553 111.924 8.55114C113.127 8.97727 114.187 9.64015 115.106 10.5398C116.034 11.4394 116.763 12.5852 117.293 13.9773C117.824 15.3598 118.089 17.0076 118.089 18.9205V20.4972H100.205V17.0312H113.16C113.15 16.0464 112.937 15.1705 112.521 14.4034C112.104 13.6269 111.522 13.0161 110.773 12.571C110.035 12.1259 109.173 11.9034 108.188 11.9034C107.137 11.9034 106.214 12.1591 105.418 12.6705C104.623 13.1723 104.003 13.8352 103.558 14.6591C103.122 15.4735 102.899 16.3684 102.89 17.3438V20.3693C102.89 21.6383 103.122 22.7273 103.586 23.6364C104.05 24.536 104.699 25.2273 105.532 25.7102C106.365 26.1837 107.341 26.4205 108.458 26.4205C109.206 26.4205 109.883 26.3163 110.489 26.108C111.095 25.8902 111.621 25.5729 112.066 25.1562C112.511 24.7396 112.847 24.2235 113.075 23.608L117.876 24.1477C117.573 25.4167 116.995 26.5246 116.143 27.4716C115.3 28.4091 114.22 29.1383 112.904 29.6591C111.588 30.1705 110.082 30.4261 108.387 30.4261ZM127.581 17.2159V30H122.439V8.18182H127.354V11.8892H127.609C128.111 10.6676 128.911 9.69697 130.01 8.97727C131.118 8.25758 132.486 7.89773 134.115 7.89773C135.621 7.89773 136.932 8.2197 138.05 8.86364C139.177 9.50758 140.048 10.4403 140.663 11.6619C141.288 12.8835 141.596 14.3655 141.587 16.108V30H136.445V16.9034C136.445 15.4451 136.066 14.304 135.308 13.4801C134.56 12.6562 133.523 12.2443 132.197 12.2443C131.298 12.2443 130.498 12.4432 129.797 12.8409C129.106 13.2292 128.561 13.7926 128.163 14.5312C127.775 15.2699 127.581 16.1648 127.581 17.2159ZM156.303 38.6364C154.456 38.6364 152.87 38.3854 151.544 37.8835C150.218 37.3911 149.153 36.7282 148.348 35.8949C147.543 35.0616 146.984 34.1383 146.672 33.125L151.303 32.0028C151.511 32.429 151.814 32.8504 152.212 33.267C152.609 33.6932 153.144 34.0436 153.817 34.3182C154.499 34.6023 155.356 34.7443 156.388 34.7443C157.846 34.7443 159.054 34.3892 160.01 33.679C160.966 32.9782 161.445 31.8229 161.445 30.2131V26.0795H161.189C160.924 26.6098 160.536 27.1544 160.024 27.7131C159.522 28.2718 158.855 28.7405 158.021 29.1193C157.197 29.4981 156.161 29.6875 154.911 29.6875C153.234 29.6875 151.714 29.2945 150.351 28.5085C148.997 27.7131 147.917 26.5294 147.112 24.9574C146.317 23.3759 145.919 21.3968 145.919 19.0199C145.919 16.6241 146.317 14.6023 147.112 12.9545C147.917 11.2973 149.001 10.0426 150.365 9.19034C151.729 8.3286 153.249 7.89773 154.925 7.89773C156.203 7.89773 157.254 8.11553 158.078 8.55114C158.911 8.97727 159.574 9.49337 160.067 10.0994C160.559 10.696 160.933 11.2595 161.189 11.7898H161.473V8.18182H166.544V30.3551C166.544 32.2206 166.099 33.7642 165.209 34.9858C164.319 36.2074 163.102 37.1212 161.558 37.7273C160.015 38.3333 158.263 38.6364 156.303 38.6364ZM156.345 25.6534C157.434 25.6534 158.362 25.3883 159.129 24.858C159.896 24.3277 160.479 23.5653 160.876 22.571C161.274 21.5767 161.473 20.3835 161.473 18.9915C161.473 17.6184 161.274 16.4157 160.876 15.3835C160.488 14.3513 159.911 13.5511 159.143 12.983C158.386 12.4053 157.453 12.1165 156.345 12.1165C155.199 12.1165 154.243 12.4148 153.476 13.0114C152.709 13.608 152.131 14.4271 151.743 15.4688C151.355 16.5009 151.161 17.6752 151.161 18.9915C151.161 20.3267 151.355 21.4962 151.743 22.5C152.141 23.4943 152.723 24.2708 153.49 24.8295C154.267 25.3788 155.218 25.6534 156.345 25.6534ZM181.473 30.4261C179.286 30.4261 177.396 29.9716 175.805 29.0625C174.224 28.1439 173.007 26.8466 172.155 25.1705C171.303 23.4848 170.876 21.5009 170.876 19.2188C170.876 16.9744 171.303 15.0047 172.155 13.3097C173.017 11.6051 174.219 10.2794 175.763 9.33239C177.306 8.37595 179.12 7.89773 181.203 7.89773C182.548 7.89773 183.817 8.11553 185.01 8.55114C186.213 8.97727 187.273 9.64015 188.192 10.5398C189.12 11.4394 189.849 12.5852 190.379 13.9773C190.91 15.3598 191.175 17.0076 191.175 18.9205V20.4972H173.291V17.0312H186.246C186.236 16.0464 186.023 15.1705 185.607 14.4034C185.19 13.6269 184.607 13.0161 183.859 12.571C183.121 12.1259 182.259 11.9034 181.274 11.9034C180.223 11.9034 179.3 12.1591 178.504 12.6705C177.709 13.1723 177.089 13.8352 176.643 14.6591C176.208 15.4735 175.985 16.3684 175.976 17.3438V20.3693C175.976 21.6383 176.208 22.7273 176.672 23.6364C177.136 24.536 177.785 25.2273 178.618 25.7102C179.451 26.1837 180.427 26.4205 181.544 26.4205C182.292 26.4205 182.969 26.3163 183.575 26.108C184.181 25.8902 184.707 25.5729 185.152 25.1562C185.597 24.7396 185.933 24.2235 186.161 23.608L190.962 24.1477C190.659 25.4167 190.081 26.5246 189.229 27.4716C188.386 28.4091 187.306 29.1383 185.99 29.6591C184.674 30.1705 183.168 30.4261 181.473 30.4261ZM210.944 0.90909V30H205.674V0.90909H210.944ZM221.92 0.90909V30H216.651V0.90909H221.92ZM262.45 10.7244H257.137C256.986 9.85322 256.706 9.08144 256.299 8.40909C255.892 7.72727 255.385 7.14962 254.779 6.67614C254.173 6.20265 253.482 5.84754 252.705 5.6108C251.938 5.36458 251.11 5.24148 250.219 5.24148C248.638 5.24148 247.237 5.6392 246.015 6.43466C244.793 7.22064 243.837 8.37595 243.146 9.90057C242.454 11.4157 242.109 13.267 242.109 15.4545C242.109 17.6799 242.454 19.5549 243.146 21.0795C243.846 22.5947 244.803 23.7405 246.015 24.517C247.237 25.2841 248.633 25.6676 250.205 25.6676C251.076 25.6676 251.891 25.554 252.648 25.3267C253.415 25.09 254.102 24.7443 254.708 24.2898C255.324 23.8352 255.84 23.2765 256.256 22.6136C256.683 21.9508 256.976 21.1932 257.137 20.3409L262.45 20.3693C262.251 21.7519 261.82 23.0492 261.157 24.2614C260.504 25.4735 259.647 26.5436 258.586 27.4716C257.525 28.3902 256.285 29.1098 254.864 29.6307C253.444 30.142 251.867 30.3977 250.134 30.3977C247.577 30.3977 245.295 29.8059 243.288 28.6222C241.28 27.4384 239.699 25.7292 238.543 23.4943C237.388 21.2595 236.81 18.5795 236.81 15.4545C236.81 12.3201 237.393 9.64015 238.558 7.41477C239.722 5.17992 241.308 3.47064 243.316 2.28693C245.324 1.10322 247.596 0.511363 250.134 0.511363C251.754 0.511363 253.259 0.738635 254.651 1.19318C256.043 1.64773 257.284 2.31534 258.373 3.19602C259.462 4.06723 260.357 5.13731 261.058 6.40625C261.768 7.66572 262.232 9.10511 262.45 10.7244ZM272.19 17.2159V30H267.048V0.90909H272.077V11.8892H272.332C272.844 10.6581 273.634 9.6875 274.705 8.97727C275.784 8.25758 277.157 7.89773 278.824 7.89773C280.339 7.89773 281.66 8.21496 282.787 8.84943C283.914 9.4839 284.785 10.4119 285.401 11.6335C286.026 12.8551 286.338 14.3466 286.338 16.108V30H281.196V16.9034C281.196 15.4356 280.817 14.2945 280.06 13.4801C279.312 12.6562 278.26 12.2443 276.906 12.2443C275.997 12.2443 275.183 12.4432 274.463 12.8409C273.753 13.2292 273.194 13.7926 272.787 14.5312C272.389 15.2699 272.19 16.1648 272.19 17.2159ZM297.858 30.4403C296.475 30.4403 295.23 30.1941 294.122 29.7017C293.024 29.1998 292.152 28.4612 291.509 27.4858C290.874 26.5104 290.557 25.3078 290.557 23.8778C290.557 22.6468 290.784 21.6288 291.239 20.8239C291.693 20.0189 292.313 19.375 293.099 18.892C293.885 18.4091 294.771 18.0445 295.756 17.7983C296.75 17.5426 297.777 17.358 298.838 17.2443C300.116 17.1117 301.153 16.9934 301.949 16.8892C302.744 16.7756 303.322 16.6051 303.682 16.3778C304.051 16.1411 304.236 15.7765 304.236 15.2841V15.1989C304.236 14.1288 303.919 13.3002 303.284 12.7131C302.65 12.1259 301.736 11.8324 300.543 11.8324C299.283 11.8324 298.284 12.107 297.545 12.6562C296.816 13.2055 296.324 13.8542 296.068 14.6023L291.267 13.9205C291.646 12.5947 292.271 11.4867 293.142 10.5966C294.013 9.69697 295.079 9.02462 296.338 8.57955C297.598 8.125 298.99 7.89773 300.514 7.89773C301.565 7.89773 302.612 8.02083 303.653 8.26705C304.695 8.51326 305.647 8.92045 306.509 9.48864C307.37 10.0473 308.062 10.8097 308.582 11.7756C309.113 12.7415 309.378 13.9489 309.378 15.3977V30H304.435V27.0028H304.264C303.952 27.6089 303.511 28.1771 302.943 28.7074C302.384 29.2282 301.679 29.6496 300.827 29.9716C299.984 30.2841 298.994 30.4403 297.858 30.4403ZM299.193 26.6619C300.225 26.6619 301.12 26.4583 301.878 26.0511C302.635 25.6345 303.218 25.0852 303.625 24.4034C304.042 23.7216 304.25 22.9782 304.25 22.1733V19.6023C304.089 19.7348 303.814 19.858 303.426 19.9716C303.047 20.0852 302.621 20.1847 302.148 20.2699C301.674 20.3551 301.205 20.4309 300.741 20.4972C300.277 20.5634 299.875 20.6203 299.534 20.6676C298.767 20.7718 298.08 20.9422 297.474 21.179C296.868 21.4157 296.39 21.7472 296.04 22.1733C295.689 22.59 295.514 23.1297 295.514 23.7926C295.514 24.7396 295.86 25.4545 296.551 25.9375C297.242 26.4205 298.123 26.6619 299.193 26.6619ZM314.548 38.1818V8.18182H319.605V11.7898H319.903C320.169 11.2595 320.543 10.696 321.026 10.0994C321.509 9.49337 322.162 8.97727 322.986 8.55114C323.81 8.11553 324.861 7.89773 326.139 7.89773C327.825 7.89773 329.345 8.3286 330.699 9.19034C332.063 10.0426 333.142 11.3068 333.938 12.983C334.742 14.6496 335.145 16.6951 335.145 19.1193C335.145 21.5152 334.752 23.5511 333.966 25.2273C333.18 26.9034 332.11 28.1818 330.756 29.0625C329.402 29.9432 327.867 30.3835 326.153 30.3835C324.903 30.3835 323.866 30.1752 323.043 29.7585C322.219 29.3419 321.556 28.84 321.054 28.2528C320.562 27.6562 320.178 27.0928 319.903 26.5625H319.69V38.1818H314.548ZM319.591 19.0909C319.591 20.5019 319.79 21.7377 320.188 22.7983C320.595 23.8589 321.177 24.6875 321.935 25.2841C322.702 25.8712 323.63 26.1648 324.719 26.1648C325.855 26.1648 326.807 25.8617 327.574 25.2557C328.341 24.6402 328.919 23.8021 329.307 22.7415C329.705 21.6714 329.903 20.4545 329.903 19.0909C329.903 17.7367 329.709 16.5341 329.321 15.483C328.933 14.4318 328.355 13.608 327.588 13.0114C326.821 12.4148 325.865 12.1165 324.719 12.1165C323.62 12.1165 322.688 12.4053 321.92 12.983C321.153 13.5606 320.571 14.3703 320.173 15.4119C319.785 16.4536 319.591 17.6799 319.591 19.0909ZM350.443 8.18182V12.1591H337.901V8.18182H350.443ZM340.997 2.95455H346.139V23.4375C346.139 24.1288 346.243 24.6591 346.452 25.0284C346.67 25.3883 346.954 25.6345 347.304 25.767C347.654 25.8996 348.043 25.9659 348.469 25.9659C348.791 25.9659 349.084 25.9422 349.349 25.8949C349.624 25.8475 349.832 25.8049 349.974 25.767L350.841 29.7869C350.566 29.8816 350.173 29.9858 349.662 30.0994C349.16 30.2131 348.545 30.2794 347.815 30.2983C346.527 30.3362 345.367 30.142 344.335 29.7159C343.303 29.2803 342.484 28.608 341.878 27.6989C341.281 26.7898 340.988 25.6534 340.997 24.2898V2.95455ZM364.168 30.4261C361.981 30.4261 360.092 29.9716 358.501 29.0625C356.919 28.1439 355.702 26.8466 354.85 25.1705C353.998 23.4848 353.572 21.5009 353.572 19.2188C353.572 16.9744 353.998 15.0047 354.85 13.3097C355.712 11.6051 356.915 10.2794 358.458 9.33239C360.002 8.37595 361.815 7.89773 363.898 7.89773C365.243 7.89773 366.512 8.11553 367.705 8.55114C368.908 8.97727 369.969 9.64015 370.887 10.5398C371.815 11.4394 372.544 12.5852 373.075 13.9773C373.605 15.3598 373.87 17.0076 373.87 18.9205V20.4972H355.987V17.0312H368.941C368.932 16.0464 368.719 15.1705 368.302 14.4034C367.885 13.6269 367.303 13.0161 366.555 12.571C365.816 12.1259 364.954 11.9034 363.969 11.9034C362.918 11.9034 361.995 12.1591 361.2 12.6705C360.404 13.1723 359.784 13.8352 359.339 14.6591C358.903 15.4735 358.681 16.3684 358.671 17.3438V20.3693C358.671 21.6383 358.903 22.7273 359.367 23.6364C359.831 24.536 360.48 25.2273 361.313 25.7102C362.147 26.1837 363.122 26.4205 364.239 26.4205C364.987 26.4205 365.665 26.3163 366.271 26.108C366.877 25.8902 367.402 25.5729 367.847 25.1562C368.292 24.7396 368.629 24.2235 368.856 23.608L373.657 24.1477C373.354 25.4167 372.776 26.5246 371.924 27.4716C371.081 28.4091 370.002 29.1383 368.685 29.6591C367.369 30.1705 365.863 30.4261 364.168 30.4261ZM378.22 30V8.18182H383.206V11.8182H383.433C383.831 10.5587 384.513 9.58807 385.479 8.90625C386.454 8.21496 387.567 7.86932 388.817 7.86932C389.101 7.86932 389.418 7.88352 389.768 7.91193C390.128 7.93087 390.427 7.96401 390.663 8.01136V12.7415C390.446 12.6657 390.1 12.5994 389.626 12.5426C389.162 12.4763 388.713 12.4432 388.277 12.4432C387.339 12.4432 386.497 12.6468 385.749 13.054C385.01 13.4517 384.428 14.0057 384.001 14.7159C383.575 15.4261 383.362 16.2453 383.362 17.1733V30H378.22ZM409.499 0.90909V30H404.229V0.90909H409.499ZM420.475 0.90909V30H415.205V0.90909H420.475ZM431.452 0.90909V30H426.182V0.90909H431.452Z" fill="#A8A8B3"/>
</svg>
