<svg width="118" height="40" viewBox="0 0 118 40" fill="none" xmlns="http://www.w3.org/2000/svg">
<path d="M16.2454 39.7975C7.28682 39.7975 0 32.7281 0 24.0382C0 15.3484 7.2879 8.27902 16.2454 8.27902H16.2494C17.7583 5.75078 19.8985 3.6583 22.4599 2.20688C25.0214 0.755464 27.9162 -0.00502763 30.8602 2.50135e-05C39.0069 2.50135e-05 46.0679 5.8888 47.5894 13.8178C51.4898 16.4746 53.797 20.8138 53.797 25.5714C53.797 33.4159 47.4159 39.7975 39.5723 39.7975C39.5723 39.7975 28.7054 40.894 28.8911 29.3866H27.2451C27.2451 29.3866 28.4034 39.9113 16.4569 39.8257L16.2454 39.7975Z" fill="#A8A8B3"/>
<path d="M31.1061 27.1202C30.833 27.6001 30.2093 28.5274 30.1786 28.5585C30.1041 28.633 30.0156 28.6921 29.9182 28.7323C29.8208 28.7725 29.7164 28.7931 29.611 28.7929L26.5312 28.7954C26.4027 28.7943 26.2763 28.7628 26.1624 28.7034C26.0484 28.644 25.9502 28.5584 25.8757 28.4536C25.5923 28.0503 25.3114 27.6001 25.0362 27.1213C24.1284 27.3532 21.4819 27.5901 21.4819 27.5901C21.4819 27.5901 21.7488 23.5565 23.0785 22.0528C22.7755 20.579 22.7025 19.0588 23.007 17.6152C23.5859 14.881 25.4656 12.8254 27.5052 10.7845C27.6558 10.6341 27.8598 10.5497 28.0726 10.5497C28.2853 10.5497 28.4894 10.6341 28.6399 10.7845C30.5972 12.7417 32.5585 14.885 33.1342 17.6198C33.4409 19.0602 33.369 20.5805 33.0652 22.0574C34.3956 23.5605 34.6629 27.5933 34.6629 27.5933C34.6629 27.5933 32.0139 27.3532 31.1061 27.1202Z" fill="#353431"/>
<path d="M29.5001 18.5671C29.5001 18.2911 29.4183 18.0212 29.265 17.7917C29.1116 17.5622 28.8937 17.3833 28.6387 17.2776C28.3837 17.172 28.1031 17.1444 27.8324 17.1982C27.5616 17.2521 27.313 17.385 27.1178 17.5802C26.9227 17.7754 26.7897 18.0241 26.7359 18.2948C26.682 18.5656 26.7097 18.8462 26.8153 19.1012C26.9209 19.3562 27.0998 19.5742 27.3293 19.7276C27.5588 19.8809 27.8286 19.9628 28.1046 19.9628C28.4747 19.9628 28.8297 19.8158 29.0914 19.554C29.3531 19.2923 29.5001 18.9373 29.5001 18.5671V18.5671Z" fill="#F3F2F2"/>
<path d="M73.1366 29.4704C73.0889 29.5419 73.0186 29.6387 72.9258 29.7606C72.833 29.8825 72.6132 30.0994 72.2664 30.4112C71.9211 30.7215 71.5471 30.9983 71.1496 31.2379C70.7509 31.4782 70.2261 31.692 69.5751 31.8796C68.9207 32.0679 68.243 32.1628 67.562 32.1612C65.5455 32.1612 63.8721 31.4606 62.5417 30.0594C61.2113 28.6582 60.5461 26.8382 60.5461 24.5994V14.5228H63.0605V24.5994C63.0605 26.1118 63.5294 27.3602 64.4671 28.3449C65.4049 29.3295 66.5537 29.8219 67.9137 29.8222C69.3792 29.8222 70.6158 29.2829 71.6237 28.2042C72.6316 27.1256 73.1356 25.748 73.1359 24.0715V14.5228H75.6689V31.808H73.1369L73.1366 29.4704Z" fill="#A8A8B3"/>
<path d="M84.1262 39.3709H81.6117V14.5228H84.1262V17.2308C84.1739 17.1607 84.2589 17.0522 84.3813 16.9055C84.5037 16.7588 84.7557 16.5097 85.1374 16.1583C85.5195 15.8057 85.9346 15.4906 86.3769 15.2174C86.8223 14.9419 87.3937 14.6957 88.0913 14.4788C88.7887 14.262 89.515 14.1523 90.2454 14.1535C92.4491 14.1535 94.3803 15.0386 96.039 16.8089C97.6976 18.5792 98.5271 20.6982 98.5273 23.1661C98.5273 25.634 97.7009 27.7501 96.0479 29.5144C94.395 31.2787 92.4608 32.1615 90.2454 32.1626C89.5214 32.1648 88.8011 32.058 88.1088 31.8459C87.4232 31.6348 86.8459 31.3827 86.3769 31.0898C85.9475 30.8254 85.539 30.5286 85.1549 30.2019C84.8093 29.9027 84.5484 29.6476 84.3724 29.4367L84.1262 29.1025V39.3709ZM86.0166 27.826C87.2769 29.1565 88.6865 29.8218 90.2454 29.8218C91.734 29.8218 93.0673 29.1741 94.2456 27.8786C95.4238 26.5831 96.0129 25.0121 96.0129 23.1658C96.0129 21.3191 95.4238 19.7481 94.2456 18.4526C93.0673 17.1571 91.734 16.5096 90.2454 16.5101C88.6862 16.5101 87.2766 17.1754 86.0166 18.5059C84.7566 19.8365 84.1264 21.3899 84.1262 23.1661C84.1262 24.9424 84.7563 26.4958 86.0166 27.8263V27.826Z" fill="#A8A8B3"/>
<path d="M110.59 16.8608H106.439V31.8094H103.925V16.8608H101.218V14.5228H103.926V11.2869C103.926 9.68081 104.339 8.43805 105.165 7.55864C105.992 6.67923 107.138 6.23964 108.603 6.23988C109.035 6.23966 109.465 6.28682 109.887 6.38052C110.308 6.47429 110.625 6.56805 110.836 6.66181L111.118 6.78492V9.12397C110.402 8.76037 109.622 8.57869 108.779 8.57893C107.22 8.57893 106.44 9.4816 106.44 11.2869V14.5228H110.591L110.59 16.8608Z" fill="#DD6B20"/>
<path d="M114.642 7.60265C114.953 7.2925 115.337 7.13742 115.794 7.13742C116.252 7.13742 116.636 7.2925 116.946 7.60265C117.256 7.91281 117.411 8.2968 117.411 8.75464C117.411 9.21248 117.256 9.59647 116.946 9.90663C116.636 10.2168 116.252 10.3719 115.794 10.3719C115.337 10.3719 114.953 10.2168 114.642 9.90663C114.332 9.59647 114.177 9.21248 114.177 8.75464C114.177 8.2968 114.332 7.91281 114.642 7.60265ZM114.546 14.5228H117.06V31.808H114.546V14.5228Z" fill="#DD6B20"/>
</svg>
